<?xml version="1.0" encoding="UTF-8"?><svg xmlns="http://www.w3.org/2000/svg" xmlns:xlink="http://www.w3.org/1999/xlink" fill-opacity="1" color-rendering="auto" color-interpolation="auto" text-rendering="auto" stroke="black" stroke-linecap="square" width="798" stroke-miterlimit="10" shape-rendering="auto" stroke-opacity="1" fill="black" stroke-dasharray="none" font-weight="normal" stroke-width="1" height="718" font-family="'Dialog'" font-style="normal" stroke-linejoin="miter" font-size="12px" stroke-dashoffset="0" image-rendering="auto">
  <!--Generated by ySVG 2.5-->
  <defs id="genericDefs"/>
  <g>
    <defs id="defs1">
      <clipPath clipPathUnits="userSpaceOnUse" id="clipPath1">
        <path d="M0 0 L798 0 L798 718 L0 718 L0 0 Z"/>
      </clipPath>
      <clipPath clipPathUnits="userSpaceOnUse" id="clipPath2">
        <path d="M17 7 L815 7 L815 725 L17 725 L17 7 Z"/>
      </clipPath>
    </defs>
    <g fill="white" text-rendering="geometricPrecision" shape-rendering="geometricPrecision" transform="translate(-17,-7)" stroke="white">
      <rect x="17" width="798" height="718" y="7" clip-path="url(#clipPath2)" stroke="none"/>
    </g>
    <g fill="rgb(255,204,0)" text-rendering="geometricPrecision" shape-rendering="geometricPrecision" transform="matrix(1,0,0,1,-17,-7)" stroke="rgb(255,204,0)">
      <rect x="277.5" width="215" height="68" y="22" clip-path="url(#clipPath2)" stroke="none"/>
    </g>
    <g text-rendering="geometricPrecision" stroke-miterlimit="1.45" shape-rendering="geometricPrecision" font-family="sans-serif" transform="matrix(1,0,0,1,-17,-7)" stroke-linecap="butt">
      <text x="340.0469" xml:space="preserve" y="46.4023" clip-path="url(#clipPath2)" stroke="none">Kirjautumissivu</text>
      <text x="324.209" xml:space="preserve" y="60.5352" clip-path="url(#clipPath2)" stroke="none">(user_controller.php)</text>
      <text x="329.6699" xml:space="preserve" y="74.668" clip-path="url(#clipPath2)" stroke="none">Ainoa julkinen sivu</text>
      <rect fill="none" x="277.5" width="215" height="68" y="22" clip-path="url(#clipPath2)"/>
    </g>
    <g fill="rgb(255,204,0)" text-rendering="geometricPrecision" shape-rendering="geometricPrecision" transform="matrix(1,0,0,1,-17,-7)" stroke="rgb(255,204,0)">
      <rect x="277.5" width="215" height="68" y="130" clip-path="url(#clipPath2)" stroke="none"/>
    </g>
    <g text-rendering="geometricPrecision" stroke-miterlimit="1.45" shape-rendering="geometricPrecision" font-family="sans-serif" transform="matrix(1,0,0,1,-17,-7)" stroke-linecap="butt">
      <text x="306.9062" xml:space="preserve" y="147.3359" clip-path="url(#clipPath2)" stroke="none">Käyttäjän omien tietojen ja</text>
      <text x="318.1123" xml:space="preserve" y="161.4688" clip-path="url(#clipPath2)" stroke="none">äänestysten listaussivu</text>
      <text x="362.2598" xml:space="preserve" y="175.6016" clip-path="url(#clipPath2)" stroke="none">	Etusivu</text>
      <text x="324.209" xml:space="preserve" y="189.7344" clip-path="url(#clipPath2)" stroke="none">(user_controller.php)</text>
      <rect fill="none" x="277.5" width="215" height="68" y="130" clip-path="url(#clipPath2)"/>
    </g>
    <g fill="rgb(255,204,0)" text-rendering="geometricPrecision" shape-rendering="geometricPrecision" transform="matrix(1,0,0,1,-17,-7)" stroke="rgb(255,204,0)">
      <rect x="32.5" width="215" height="68" y="228" clip-path="url(#clipPath2)" stroke="none"/>
    </g>
    <g text-rendering="geometricPrecision" stroke-miterlimit="1.45" shape-rendering="geometricPrecision" font-family="sans-serif" transform="matrix(1,0,0,1,-17,-7)" stroke-linecap="butt">
      <text x="102.3623" xml:space="preserve" y="259.4688" clip-path="url(#clipPath2)" stroke="none">Äänestyssivu</text>
      <text x="80.8584" xml:space="preserve" y="273.6016" clip-path="url(#clipPath2)" stroke="none">(poll_controller.php)</text>
      <rect fill="none" x="32.5" width="215" height="68" y="228" clip-path="url(#clipPath2)"/>
    </g>
    <g fill="rgb(255,204,0)" text-rendering="geometricPrecision" shape-rendering="geometricPrecision" transform="matrix(1,0,0,1,-17,-7)" stroke="rgb(255,204,0)">
      <rect x="522.5" width="215" height="68" y="228" clip-path="url(#clipPath2)" stroke="none"/>
    </g>
    <g text-rendering="geometricPrecision" stroke-miterlimit="1.45" shape-rendering="geometricPrecision" font-family="sans-serif" transform="matrix(1,0,0,1,-17,-7)" stroke-linecap="butt">
      <text x="543.2549" xml:space="preserve" y="259.4688" clip-path="url(#clipPath2)" stroke="none">Omien tietojen muokkaussivu</text>
      <text x="569.209" xml:space="preserve" y="273.6016" clip-path="url(#clipPath2)" stroke="none">(user_controller.php)</text>
      <rect fill="none" x="522.5" width="215" height="68" y="228" clip-path="url(#clipPath2)"/>
    </g>
    <g fill="rgb(255,204,0)" text-rendering="geometricPrecision" shape-rendering="geometricPrecision" transform="matrix(1,0,0,1,-17,-7)" stroke="rgb(255,204,0)">
      <rect x="522.5" width="215" height="68" y="402.5" clip-path="url(#clipPath2)" stroke="none"/>
    </g>
    <g text-rendering="geometricPrecision" stroke-miterlimit="1.45" shape-rendering="geometricPrecision" font-family="sans-serif" transform="matrix(1,0,0,1,-17,-7)" stroke-linecap="butt">
      <text x="541.6611" xml:space="preserve" y="433.9688" clip-path="url(#clipPath2)" stroke="none">Käyttäjien listaussivu (ylläpito)</text>
      <text x="569.209" xml:space="preserve" y="448.1016" clip-path="url(#clipPath2)" stroke="none">(user_controller.php)</text>
      <rect fill="none" x="522.5" width="215" height="68" y="402.5" clip-path="url(#clipPath2)"/>
    </g>
    <g fill="rgb(255,204,0)" text-rendering="geometricPrecision" shape-rendering="geometricPrecision" transform="matrix(1,0,0,1,-17,-7)" stroke="rgb(255,204,0)">
      <rect x="522.5" width="215" height="68" y="525" clip-path="url(#clipPath2)" stroke="none"/>
    </g>
    <g text-rendering="geometricPrecision" stroke-miterlimit="1.45" shape-rendering="geometricPrecision" font-family="sans-serif" transform="matrix(1,0,0,1,-17,-7)" stroke-linecap="butt">
      <text x="578.9297" xml:space="preserve" y="549.4023" clip-path="url(#clipPath2)" stroke="none">Käyttäjän tietojen</text>
      <text x="572.3525" xml:space="preserve" y="563.5352" clip-path="url(#clipPath2)" stroke="none">listaussivu (ylläpito)</text>
      <text x="569.209" xml:space="preserve" y="577.668" clip-path="url(#clipPath2)" stroke="none">(user_controller.php)</text>
      <rect fill="none" x="522.5" width="215" height="68" y="525" clip-path="url(#clipPath2)"/>
    </g>
    <g fill="rgb(255,204,0)" text-rendering="geometricPrecision" shape-rendering="geometricPrecision" transform="matrix(1,0,0,1,-17,-7)" stroke="rgb(255,204,0)">
      <rect x="522.5" width="215" height="68" y="641.5" clip-path="url(#clipPath2)" stroke="none"/>
    </g>
    <g text-rendering="geometricPrecision" stroke-miterlimit="1.45" shape-rendering="geometricPrecision" font-family="sans-serif" transform="matrix(1,0,0,1,-17,-7)" stroke-linecap="butt">
      <text x="550.4883" xml:space="preserve" y="665.9023" clip-path="url(#clipPath2)" stroke="none">Käyttäjän tietojen lisäys- ja</text>
      <text x="561.0996" xml:space="preserve" y="680.0352" clip-path="url(#clipPath2)" stroke="none">muokkaussivu (ylläpito)</text>
      <text x="569.209" xml:space="preserve" y="694.168" clip-path="url(#clipPath2)" stroke="none">(user_controller.php)</text>
      <rect fill="none" x="522.5" width="215" height="68" y="641.5" clip-path="url(#clipPath2)"/>
    </g>
    <g fill="rgb(255,204,0)" text-rendering="geometricPrecision" shape-rendering="geometricPrecision" transform="matrix(1,0,0,1,-17,-7)" stroke="rgb(255,204,0)">
      <rect x="32.5" width="215" height="70.5" y="400" clip-path="url(#clipPath2)" stroke="none"/>
    </g>
    <g text-rendering="geometricPrecision" stroke-miterlimit="1.45" shape-rendering="geometricPrecision" font-family="sans-serif" transform="matrix(1,0,0,1,-17,-7)" stroke-linecap="butt">
      <text x="45.1279" xml:space="preserve" y="432.7188" clip-path="url(#clipPath2)" stroke="none">Äänestysten listaussivu (ylläpito)</text>
      <text x="80.8584" xml:space="preserve" y="446.8516" clip-path="url(#clipPath2)" stroke="none">(poll_controller.php)</text>
      <rect fill="none" x="32.5" width="215" height="70.5" y="400" clip-path="url(#clipPath2)"/>
    </g>
    <g fill="rgb(255,204,0)" text-rendering="geometricPrecision" shape-rendering="geometricPrecision" transform="matrix(1,0,0,1,-17,-7)" stroke="rgb(255,204,0)">
      <rect x="32.5" width="215" height="68" y="525" clip-path="url(#clipPath2)" stroke="none"/>
    </g>
    <g text-rendering="geometricPrecision" stroke-miterlimit="1.45" shape-rendering="geometricPrecision" font-family="sans-serif" transform="matrix(1,0,0,1,-17,-7)" stroke-linecap="butt">
      <text x="55.1328" xml:space="preserve" y="549.4023" clip-path="url(#clipPath2)" stroke="none">Äänestyksen tietojen listaus-</text>
      <text x="79.7363" xml:space="preserve" y="563.5352" clip-path="url(#clipPath2)" stroke="none">ja tulossivu (ylläpito)</text>
      <text x="80.8584" xml:space="preserve" y="577.668" clip-path="url(#clipPath2)" stroke="none">(poll_controller.php)</text>
      <rect fill="none" x="32.5" width="215" height="68" y="525" clip-path="url(#clipPath2)"/>
    </g>
    <g fill="rgb(255,204,0)" text-rendering="geometricPrecision" shape-rendering="geometricPrecision" transform="matrix(1,0,0,1,-17,-7)" stroke="rgb(255,204,0)">
      <rect x="32.5" width="215" height="68" y="641.5" clip-path="url(#clipPath2)" stroke="none"/>
    </g>
    <g text-rendering="geometricPrecision" stroke-miterlimit="1.45" shape-rendering="geometricPrecision" font-family="sans-serif" transform="matrix(1,0,0,1,-17,-7)" stroke-linecap="butt">
      <text x="50.9287" xml:space="preserve" y="665.9023" clip-path="url(#clipPath2)" stroke="none">Äänestyksen tietojen lisäys- ja</text>
      <text x="71.0996" xml:space="preserve" y="680.0352" clip-path="url(#clipPath2)" stroke="none">muokkaussivu (ylläpito)</text>
      <text x="79.209" xml:space="preserve" y="694.168" clip-path="url(#clipPath2)" stroke="none">(user_controller.php)</text>
      <rect fill="none" x="32.5" width="215" height="68" y="641.5" clip-path="url(#clipPath2)"/>
      <text x="72.833" xml:space="preserve" y="351.5352" clip-path="url(#clipPath2)" stroke="none">Sivustolla on erillinen navigaatiovalikko, jolla siirtyminen äänestysten ja käyttäjien ylläpitosivuille tapahtuu.</text>
      <path fill="none" d="M385 90 L385 115" clip-path="url(#clipPath2)"/>
      <path fill="white" d="M385 130 L391 114 L379 114 Z" clip-path="url(#clipPath2)" stroke="none"/>
      <path fill="none" d="M385 130 L391 114 L379 114 Z" clip-path="url(#clipPath2)"/>
      <path fill="none" d="M279.0632 198.0209 L257.5449 217.8374" clip-path="url(#clipPath2)"/>
      <path fill="white" d="M246.511 227.9987 L262.345 221.5736 L254.216 212.7464 Z" clip-path="url(#clipPath2)" stroke="none"/>
      <path fill="none" d="M246.511 227.9987 L262.345 221.5736 L254.216 212.7464 Z" clip-path="url(#clipPath2)"/>
      <path fill="none" d="M492.5164 197.5785 L512.7874 217.488" clip-path="url(#clipPath2)"/>
      <path fill="white" d="M523.4891 227.9987 L516.2783 212.5066 L507.8697 221.0679 Z" clip-path="url(#clipPath2)" stroke="none"/>
      <path fill="none" d="M523.4891 227.9987 L516.2783 212.5066 L507.8697 221.0679 Z" clip-path="url(#clipPath2)"/>
      <path fill="none" d="M737.5 436.5 L800 436.5 L800 164 L507.5 164" clip-path="url(#clipPath2)"/>
      <path fill="white" d="M492.5 164 L508.5 170 L508.5 158 Z" clip-path="url(#clipPath2)" stroke="none"/>
      <path fill="none" d="M492.5 164 L508.5 170 L508.5 158 Z" clip-path="url(#clipPath2)"/>
      <path fill="none" d="M630 470.5 L630 510" clip-path="url(#clipPath2)"/>
      <path fill="white" d="M630 525 L636 509 L624 509 Z" clip-path="url(#clipPath2)" stroke="none"/>
      <path fill="none" d="M630 525 L636 509 L624 509 Z" clip-path="url(#clipPath2)"/>
      <path fill="none" d="M630 593 L630 626.5" clip-path="url(#clipPath2)"/>
      <path fill="white" d="M630 641.5 L636 625.5 L624 625.5 Z" clip-path="url(#clipPath2)" stroke="none"/>
      <path fill="none" d="M630 641.5 L636 625.5 L624 625.5 Z" clip-path="url(#clipPath2)"/>
      <path fill="none" d="M140 470.5 L140 510" clip-path="url(#clipPath2)"/>
      <path fill="white" d="M140 525 L146 509 L134 509 Z" clip-path="url(#clipPath2)" stroke="none"/>
      <path fill="none" d="M140 525 L146 509 L134 509 Z" clip-path="url(#clipPath2)"/>
      <path fill="none" d="M140 593 L140 626.5" clip-path="url(#clipPath2)"/>
      <path fill="white" d="M140 641.5 L146 625.5 L134 625.5 Z" clip-path="url(#clipPath2)" stroke="none"/>
      <path fill="none" d="M140 641.5 L146 625.5 L134 625.5 Z" clip-path="url(#clipPath2)"/>
    </g>
  </g>
</svg>
